<svg viewBox="0 0 512 512" xmlns="http://www.w3.org/2000/svg"><path d="m228.23 238.57c4.34-2.64 6.5-7.07 6.5-13.4 0-6.59-2-11.17-6.11-13.84s-12-4-23.87-4h-10.22v35.1h9.47c11.78 0 19.82-1.3 24.23-3.86z"/><path d="m397.17 56h-282.34a58.82 58.82 0 0 0 -58.83 58.83v282.34a58.82 58.82 0 0 0 58.83 58.83h282.34a58.82 58.82 0 0 0 58.83-58.83v-282.34a58.82 58.82 0 0 0 -58.83-58.83zm-82.17 111.8h41v117.67h-41zm-33.5 150.28a40.17 40.17 0 0 1 -17 16.5c-5.73 3.17-13.23 5.47-22 6.87s-23 2-43 2v-1.15h-49.27v-174.77h48.59c19.73 0 33.5.77 41.23 2 8 1.5 14.5 3.5 20.25 6.75a39.06 39.06 0 0 1 14.7 14.5 43.82 43.82 0 0 1 5 21c0 10-2.5 18-7.75 23.74-5 6-13.27 10.5-24.27 13.5 12.5 1 22 5.23 29 13.23q10.5 11.67 10.5 31.17c.02 9.41-1.98 17.58-5.98 24.66zm53.92 26.15a23.53 23.53 0 0 1 0-47.06v-.17a23.63 23.63 0 0 1 0 47.25z"/><path d="m235.77 278.07q-6.37-4.35-24-4.37l.23.07h-17.5v38.28h16.77c11.25 0 19.5-1.23 24-4.23 4.75-2.75 7-7.5 7-14.25 0-7.25-2-12.5-6.5-15.5z"/></svg>