<svg viewBox="0 0 126 32" xmlns="http://www.w3.org/2000/svg"><g fill="#00bcd4"><path d="m0 31.19v-30.38h7.38v24h11.75v6.4z"/><path d="m54.49 15.87a17 17 0 0 1 -1.25 6.59 14.89 14.89 0 0 1 -8.7 8.38 18.55 18.55 0 0 1 -6.61 1.16 18.27 18.27 0 0 1 -6.58-1.16 15.27 15.27 0 0 1 -5.24-3.28 15.13 15.13 0 0 1 -3.45-5.1 17 17 0 0 1 -1.25-6.59 16.71 16.71 0 0 1 1.25-6.58 14.43 14.43 0 0 1 3.45-5 15.33 15.33 0 0 1 5.24-3.17 18.71 18.71 0 0 1 6.58-1.12 19 19 0 0 1 6.61 1.12 15.28 15.28 0 0 1 5.25 3.17 14.43 14.43 0 0 1 3.45 5 16.71 16.71 0 0 1 1.25 6.58zm-7.85 0a10.45 10.45 0 0 0 -.64-3.69 8.87 8.87 0 0 0 -1.78-2.94 8.33 8.33 0 0 0 -2.74-1.93 8.71 8.71 0 0 0 -3.54-.7 8.38 8.38 0 0 0 -6.26 2.63 8.25 8.25 0 0 0 -1.78 2.94 10.67 10.67 0 0 0 -.63 3.69 10.87 10.87 0 0 0 .65 3.8 9 9 0 0 0 1.78 3 8.08 8.08 0 0 0 2.72 2 9.08 9.08 0 0 0 7 0 8.36 8.36 0 0 0 2.74-2 8.83 8.83 0 0 0 1.8-3 10.87 10.87 0 0 0 .68-3.8z"/><path d="m81.75 31.23a27.7 27.7 0 0 1 -6.5.73 18.87 18.87 0 0 1 -6.71-1.16 15.42 15.42 0 0 1 -5.28-3.26 14.88 14.88 0 0 1 -3.45-5 16.61 16.61 0 0 1 -1.25-6.54 16.54 16.54 0 0 1 1.27-6.61 14.79 14.79 0 0 1 3.49-5 15.35 15.35 0 0 1 5.24-3.19 18.29 18.29 0 0 1 6.44-1.2 19.91 19.91 0 0 1 6.7 1.09 13.82 13.82 0 0 1 5 2.94l-4.59 5.28a8 8 0 0 0 -2.83-2 9.57 9.57 0 0 0 -4-.79 8.71 8.71 0 0 0 -3.56.71 8.53 8.53 0 0 0 -2.83 2 9 9 0 0 0 -1.87 3 10.6 10.6 0 0 0 -.66 3.8 11.88 11.88 0 0 0 .6 3.86 8 8 0 0 0 4.7 5 10.44 10.44 0 0 0 4 .7 14.76 14.76 0 0 0 2.45-.19 9.35 9.35 0 0 0 2.14-.62v-5.61h-5.82v-5.91h12.57v16.08a23.82 23.82 0 0 1 -5.25 1.89z"/><path d="m125.21 15.87a17 17 0 0 1 -1.21 6.59 14.89 14.89 0 0 1 -8.7 8.38 18.52 18.52 0 0 1 -6.65 1.16 18.27 18.27 0 0 1 -6.58-1.16 15.37 15.37 0 0 1 -5.24-3.28 15.13 15.13 0 0 1 -3.45-5.1 17 17 0 0 1 -1.24-6.59 16.71 16.71 0 0 1 1.24-6.58 14.43 14.43 0 0 1 3.45-5 15.42 15.42 0 0 1 5.24-3.17 18.71 18.71 0 0 1 6.58-1.12 19 19 0 0 1 6.61 1.12 15.28 15.28 0 0 1 5.25 3.17 14.43 14.43 0 0 1 3.45 5 16.71 16.71 0 0 1 1.25 6.58zm-7.85 0a10.45 10.45 0 0 0 -.65-3.69 8.87 8.87 0 0 0 -1.78-2.94 8.33 8.33 0 0 0 -2.74-1.93 8.71 8.71 0 0 0 -3.54-.7 8.38 8.38 0 0 0 -6.26 2.63 8.25 8.25 0 0 0 -1.78 2.94 10.67 10.67 0 0 0 -.62 3.69 10.86 10.86 0 0 0 .64 3.8 9 9 0 0 0 1.78 3 8.08 8.08 0 0 0 2.72 2 9.08 9.08 0 0 0 7 0 8.26 8.26 0 0 0 2.74-2 8.83 8.83 0 0 0 1.8-3 10.87 10.87 0 0 0 .69-3.8z"/></g></svg>