<?xml version="1.0" encoding="utf-8"?><svg xmlns="http://www.w3.org/2000/svg" xmlns:xlink="http://www.w3.org/1999/xlink"><symbol viewBox="0 0 512 512" id="twitter" xmlns="http://www.w3.org/2000/svg"><path d="M478.62 117.61A186.27 186.27 0 0 1 426 132.05a92.38 92.38 0 0 0 40.3-50.72 189.33 189.33 0 0 1-58.24 22 91.61 91.61 0 0 0-158.51 62.54 93.65 93.65 0 0 0 2.36 20.94C175.74 183.26 108.23 146.69 63 91.39a89.82 89.82 0 0 0-12.4 46.09 91.65 91.65 0 0 0 40.75 76.29A91.28 91.28 0 0 1 49.9 202.3v1.13a91.68 91.68 0 0 0 73.49 89.9 92.44 92.44 0 0 1-41.2 1.59 91.93 91.93 0 0 0 85.75 63.63 183.77 183.77 0 0 1-113.65 39.21 194.39 194.39 0 0 1-21.79-1.25 260.67 260.67 0 0 0 140.74 41.14C341.87 437.65 434 298 434 177.17c0-3.89 0-7.82-.28-11.73A185 185 0 0 0 479.5 118z"/></symbol></svg>